<svg width="16" height="16" viewBox="0 0 16 16" fill="none" xmlns="http://www.w3.org/2000/svg">
<g clip-path="url(#clip0_1473_446)">
<path d="M8.66666 1.33325C10.258 1.33325 11.7841 1.96539 12.9093 3.09061C14.0345 4.21583 14.6667 5.74195 14.6667 7.33325" stroke="#709AC2" stroke-linecap="round" stroke-linejoin="round"/>
<path d="M8.66666 4C9.55071 4 10.3986 4.35119 11.0237 4.97631C11.6488 5.60143 12 6.44928 12 7.33333" stroke="#709AC2" stroke-linecap="round" stroke-linejoin="round"/>
<path d="M9.22134 11.0453C9.35902 11.1085 9.51414 11.1229 9.66113 11.0862C9.80812 11.0495 9.93823 10.9638 10.03 10.8433L10.2667 10.5333C10.3909 10.3677 10.5519 10.2333 10.7371 10.1407C10.9222 10.0481 11.1263 9.99992 11.3333 9.99992H13.3333C13.687 9.99992 14.0261 10.1404 14.2761 10.3904C14.5262 10.6405 14.6667 10.9796 14.6667 11.3333V13.3333C14.6667 13.6869 14.5262 14.026 14.2761 14.2761C14.0261 14.5261 13.687 14.6666 13.3333 14.6666C10.1507 14.6666 7.09849 13.4023 4.84805 11.1519C2.59762 8.90143 1.33334 5.84918 1.33334 2.66659C1.33334 2.31296 1.47381 1.97382 1.72386 1.72378C1.97391 1.47373 2.31305 1.33325 2.66667 1.33325H4.66667C5.02029 1.33325 5.35943 1.47373 5.60948 1.72378C5.85953 1.97382 6 2.31296 6 2.66659V4.66659C6 4.87358 5.95181 5.07773 5.85924 5.26287C5.76667 5.44801 5.63226 5.60906 5.46667 5.73325L5.15467 5.96725C5.03228 6.0607 4.94602 6.19364 4.91053 6.34349C4.87504 6.49333 4.89252 6.65084 4.96 6.78925C5.87112 8.63983 7.36962 10.1364 9.22134 11.0453Z" stroke="#709AC2" stroke-linecap="round" stroke-linejoin="round"/>
</g>
<defs>
<clipPath id="clip0_1473_446">
<rect width="16" height="16" fill="white"/>
</clipPath>
</defs>
</svg>
