<svg width="84" height="132" viewBox="0 0 84 132" fill="none" xmlns="http://www.w3.org/2000/svg">
<g clip-path="url(#clip0_1464_383)">
<path d="M36.2184 62.6627C35.9485 62.6627 35.7104 62.5973 35.504 62.4667C35.2978 62.3329 35.1358 62.1449 35.0183 61.9028C34.9041 61.6574 34.8469 61.3658 34.8469 61.028C34.8469 60.6903 34.9041 60.402 35.0183 60.163C35.1358 59.9241 35.2978 59.7408 35.504 59.6134C35.7104 59.4859 35.9485 59.4222 36.2184 59.4222C36.4914 59.4222 36.731 59.4859 36.9374 59.6134C37.1438 59.7408 37.304 59.9241 37.4184 60.163C37.5358 60.402 37.5944 60.6903 37.5944 61.028C37.5944 61.3658 37.5358 61.6574 37.4184 61.9028C37.304 62.1449 37.1438 62.3329 36.9374 62.4667C36.731 62.5973 36.4914 62.6627 36.2184 62.6627ZM36.2184 62.1799C36.3834 62.1799 36.5247 62.1338 36.6421 62.0413C36.7628 61.9457 36.8564 61.8119 36.9231 61.6399C36.9898 61.4645 37.023 61.2608 37.023 61.028C37.023 60.7954 36.9898 60.5964 36.9231 60.4306C36.8564 60.2618 36.7628 60.1327 36.6421 60.0435C36.5247 59.9512 36.3834 59.9049 36.2184 59.9049C36.0564 59.9049 35.9151 59.9512 35.7946 60.0435C35.6738 60.1327 35.5803 60.2618 35.5136 60.4306C35.447 60.5964 35.4136 60.7954 35.4136 61.028C35.4136 61.2608 35.447 61.4645 35.5136 61.6399C35.5803 61.8119 35.6738 61.9457 35.7946 62.0413C35.9151 62.1338 36.0564 62.1799 36.2184 62.1799ZM39.6938 62.6053V59.4795H40.3555L40.8889 61.009C40.9238 61.1078 40.9556 61.2066 40.9841 61.3053C41.0128 61.4009 41.0413 61.5061 41.0698 61.6207H41.0889C41.1174 61.5061 41.1444 61.4009 41.1699 61.3053C41.1984 61.2066 41.2286 61.1078 41.2603 61.009L41.7936 59.4795H42.4508V62.6053H41.9413V61.181C41.9413 61.0822 41.9445 60.9691 41.9509 60.8417C41.9603 60.7142 41.9715 60.5883 41.9841 60.4641C41.9968 60.3367 42.0095 60.2251 42.0223 60.1295H42.0032L41.7555 60.923L41.2509 62.3186H40.8793L40.3747 60.923L40.1366 60.1295H40.1175C40.1302 60.2251 40.1413 60.3367 40.1508 60.4641C40.1636 60.5883 40.1731 60.7142 40.1793 60.8417C40.1889 60.9691 40.1937 61.0822 40.1937 61.181V62.6053H39.6938ZM44.718 62.6053V59.4795H46.5942V59.948H45.2705V60.7461H46.3895V61.2145H45.2705V62.1368H46.6418V62.6053H44.718ZM50.0613 62.6627C49.7818 62.6627 49.5312 62.6005 49.3088 62.4763C49.0867 62.3521 48.912 62.1703 48.785 61.9314C48.6581 61.6892 48.5946 61.3961 48.5946 61.0519C48.5946 60.7971 48.6311 60.5693 48.7041 60.3685C48.7804 60.1677 48.8851 59.9973 49.0184 59.8571C49.1549 59.7137 49.312 59.6053 49.4897 59.5321C49.6676 59.4588 49.8596 59.4222 50.066 59.4222C50.2882 59.4222 50.4771 59.462 50.6327 59.5417C50.7881 59.6213 50.9135 59.7137 51.0088 59.8189L50.7137 60.1581C50.6374 60.0817 50.5501 60.0212 50.4516 59.9766C50.3534 59.9288 50.2312 59.9049 50.0851 59.9049C49.9009 59.9049 49.7391 59.9512 49.5994 60.0435C49.4597 60.1327 49.3518 60.2618 49.2755 60.4306C49.1993 60.5996 49.1613 60.8018 49.1613 61.0376C49.1613 61.2734 49.1978 61.4773 49.2708 61.6495C49.3437 61.8215 49.4502 61.9537 49.5898 62.0461C49.7327 62.1353 49.9072 62.1799 50.1136 62.1799C50.2025 62.1799 50.2867 62.1688 50.366 62.1464C50.4454 62.121 50.5105 62.086 50.5613 62.0413V61.3674H49.9708V60.9134H51.0564V62.2898C50.9518 62.395 50.8121 62.4842 50.6374 62.5576C50.4661 62.6276 50.2739 62.6627 50.0613 62.6627ZM52.7901 62.6053L53.8044 59.4795H54.4519L55.4663 62.6053H54.8854L54.4092 60.942C54.3584 60.7764 54.3091 60.606 54.2615 60.4306C54.2171 60.2554 54.1726 60.0817 54.1282 59.9098H54.1092C54.0678 60.0849 54.0234 60.2601 53.9758 60.4355C53.9313 60.6075 53.8837 60.7764 53.8329 60.942L53.3521 62.6053H52.7901ZM53.3901 61.7594V61.3244H54.8569V61.7594H53.3901Z" fill="#072542"/>
<path d="M45.4782 22.0371C45.2084 22.0371 44.9703 21.9718 44.7639 21.8411C44.5577 21.7073 44.3958 21.5193 44.2782 21.2771C44.164 21.0318 44.1069 20.7403 44.1069 20.4026C44.1069 20.0648 44.164 19.7764 44.2782 19.5374C44.3958 19.2985 44.5577 19.1152 44.7639 18.9878C44.9703 18.8602 45.2084 18.7966 45.4782 18.7966C45.7513 18.7966 45.9909 18.8602 46.1973 18.9878C46.4037 19.1152 46.564 19.2985 46.6783 19.5374C46.7957 19.7764 46.8544 20.0648 46.8544 20.4026C46.8544 20.7403 46.7957 21.0318 46.6783 21.2771C46.564 21.5193 46.4037 21.7073 46.1973 21.8411C45.9909 21.9718 45.7513 22.0371 45.4782 22.0371ZM45.4782 21.5543C45.6433 21.5543 45.7847 21.5082 45.9021 21.4158C46.0228 21.3202 46.1163 21.1863 46.1831 21.0143C46.2496 20.8391 46.283 20.6351 46.283 20.4026C46.283 20.1698 46.2496 19.9708 46.1831 19.805C46.1163 19.6362 46.0228 19.5071 45.9021 19.4179C45.7847 19.3256 45.6433 19.2793 45.4782 19.2793C45.3164 19.2793 45.1751 19.3256 45.0545 19.4179C44.9338 19.5071 44.8402 19.6362 44.7735 19.805C44.7069 19.9708 44.6736 20.1698 44.6736 20.4026C44.6736 20.6351 44.7069 20.8391 44.7735 21.0143C44.8402 21.1863 44.9338 21.3202 45.0545 21.4158C45.1751 21.5082 45.3164 21.5543 45.4782 21.5543ZM48.4774 21.9797V18.854H49.0298V21.5114H50.3251V21.9797H48.4774ZM52.8762 22.0371C52.6953 22.0371 52.5319 22.0115 52.3858 21.9606C52.243 21.9096 52.1191 21.8285 52.0143 21.7169C51.9127 21.6053 51.8334 21.4604 51.7762 21.2819C51.7222 21.1035 51.6952 20.8884 51.6952 20.6367V18.854H52.2477V20.6797C52.2477 20.8995 52.273 21.0732 52.3238 21.2007C52.3778 21.3281 52.4524 21.419 52.5476 21.473C52.6428 21.5272 52.7523 21.5543 52.8762 21.5543C53.0032 21.5543 53.1143 21.5272 53.2096 21.473C53.308 21.419 53.3841 21.3281 53.4381 21.2007C53.4953 21.0732 53.5238 20.8995 53.5238 20.6797V18.854H54.0524V20.6367C54.0524 20.8884 54.0254 21.1035 53.9714 21.2819C53.9174 21.4604 53.8381 21.6053 53.7333 21.7169C53.6317 21.8285 53.508 21.9096 53.362 21.9606C53.2191 22.0115 53.0571 22.0371 52.8762 22.0371ZM56.4584 21.9797V19.3224H55.5585V18.854H57.9109V19.3224H57.0108V21.9797H56.4584ZM59.4294 21.9797V18.854H59.9817V21.9797H59.4294ZM62.9827 22.0371C62.713 22.0371 62.4749 21.9718 62.2685 21.8411C62.0622 21.7073 61.9003 21.5193 61.7827 21.2771C61.6686 21.0318 61.6114 20.7403 61.6114 20.4026C61.6114 20.0648 61.6686 19.7764 61.7827 19.5374C61.9003 19.2985 62.0622 19.1152 62.2685 18.9878C62.4749 18.8602 62.713 18.7966 62.9827 18.7966C63.2559 18.7966 63.4954 18.8602 63.7018 18.9878C63.9082 19.1152 64.0685 19.2985 64.1829 19.5374C64.3002 19.7764 64.3589 20.0648 64.3589 20.4026C64.3589 20.7403 64.3002 21.0318 64.1829 21.2771C64.0685 21.5193 63.9082 21.7073 63.7018 21.8411C63.4954 21.9718 63.2559 22.0371 62.9827 22.0371ZM62.9827 21.5543C63.1479 21.5543 63.2892 21.5082 63.4066 21.4158C63.5273 21.3202 63.6209 21.1863 63.6876 21.0143C63.7542 20.8391 63.7875 20.6351 63.7875 20.4026C63.7875 20.1698 63.7542 19.9708 63.6876 19.805C63.6209 19.6362 63.5273 19.5071 63.4066 19.4179C63.2892 19.3256 63.1479 19.2793 62.9827 19.2793C62.8209 19.2793 62.6796 19.3256 62.559 19.4179C62.4383 19.5071 62.3448 19.6362 62.278 19.805C62.2113 19.9708 62.1781 20.1698 62.1781 20.4026C62.1781 20.6351 62.2113 20.8391 62.278 21.0143C62.3448 21.1863 62.4383 21.3202 62.559 21.4158C62.6796 21.5082 62.8209 21.5543 62.9827 21.5543ZM65.9819 21.9797V18.854H66.5867L67.5201 20.5746C67.5772 20.6797 67.6312 20.7928 67.682 20.914C67.7358 21.035 67.7867 21.1577 67.8343 21.2819H67.8534C67.8406 21.1131 67.8264 20.9379 67.8105 20.7561C67.7947 20.5714 67.7867 20.393 67.7867 20.2208V18.854H68.3153V21.9797H67.7105L66.7771 20.2592C66.7201 20.154 66.663 20.0409 66.6058 19.9198C66.5518 19.7988 66.501 19.6761 66.4534 19.5517H66.4343C66.4534 19.7143 66.4708 19.888 66.4867 20.0727C66.5027 20.2543 66.5106 20.4344 66.5106 20.6128V21.9797H65.9819ZM71.0211 22.0371C70.8053 22.0371 70.6004 21.9972 70.4067 21.9176C70.2163 21.8379 70.0464 21.7248 69.8974 21.5782L70.1973 21.2151C70.3083 21.3234 70.4369 21.4077 70.583 21.4683C70.7322 21.5257 70.8814 21.5543 71.0306 21.5543C71.2084 21.5543 71.3433 21.5178 71.4354 21.4444C71.5274 21.3712 71.5735 21.274 71.5735 21.153C71.5735 21.0668 71.5529 20.9983 71.5115 20.9473C71.4702 20.8931 71.4132 20.847 71.3401 20.8088C71.2704 20.7704 71.1877 20.7322 71.0925 20.694L70.6639 20.5076C70.5623 20.463 70.4624 20.4058 70.364 20.3356C70.2688 20.2624 70.1893 20.173 70.1259 20.068C70.0656 19.9596 70.0354 19.8289 70.0354 19.6761C70.0354 19.5103 70.0798 19.3622 70.1687 19.2315C70.2607 19.0977 70.3846 18.9925 70.5402 18.9161C70.6988 18.8363 70.8799 18.7966 71.0829 18.7966C71.2704 18.7966 71.4464 18.8316 71.6116 18.9018C71.7798 18.9686 71.9226 19.061 72.0401 19.179L71.7497 19.5421C71.6481 19.4593 71.5417 19.3956 71.4307 19.351C71.3195 19.3032 71.2037 19.2793 71.0829 19.2793C70.9369 19.2793 70.8179 19.3128 70.7258 19.3797C70.637 19.4433 70.5925 19.5327 70.5925 19.6473C70.5925 19.7271 70.6148 19.7939 70.6593 19.8481C70.7069 19.8991 70.7687 19.9437 70.8449 19.9819C70.9243 20.017 71.0053 20.052 71.0878 20.087L71.5115 20.2639C71.6354 20.3181 71.7449 20.3819 71.8401 20.4551C71.9354 20.5285 72.0085 20.6176 72.0593 20.7227C72.1132 20.8278 72.1401 20.9569 72.1401 21.1099C72.1401 21.2787 72.0956 21.4333 72.0068 21.5735C71.9179 21.7137 71.7893 21.8268 71.6211 21.9128C71.456 21.9957 71.256 22.0371 71.0211 22.0371Z" fill="#E09E07"/>
<path d="M33.8411 42.3139C30.5892 46.5825 28.9649 51.1987 28.9649 56.1624C28.9649 62.0632 31.4343 66.6462 36.3762 69.9138C39.2525 71.8604 42.5201 72.8337 46.1772 72.8337C49.838 72.8337 53.0154 72.1106 55.7081 70.6645C60.7731 68.0263 63.6199 63.6013 64.2484 57.386C64.3074 56.9463 64.3385 56.5066 64.3385 56.0651C64.3385 53.7432 63.6961 51.2333 62.413 48.5361C61.1334 45.8351 59.0554 43.3532 56.1791 41.0903L39.2853 27.7144C35.5954 24.8276 33.7511 21.0925 33.7511 16.5076C33.7511 11.9244 35.2195 8.04688 38.1565 4.87671C41.0966 1.70655 45.0708 0.12146 50.0769 0.12146C52.5791 0.12146 55.3012 0.434305 58.2432 1.06H61.9974L62.1845 12.6492H61.2424C61.1818 9.63195 60.1029 7.26129 58.0078 5.53716C55.9108 3.80957 53.2838 2.94403 50.1254 2.94403C46.9669 2.94403 44.3227 3.99727 42.1945 6.10028C40.0646 8.20503 39.0015 10.9042 39.0015 14.1995C39.0015 17.4948 40.3763 20.2444 43.1296 22.4447L60.4944 36.1959C67.374 41.6569 70.8148 48.2492 70.8148 55.9748C70.8148 61.7503 68.5308 66.7088 63.9646 70.8523C60.0251 74.4344 54.7695 76.2263 48.1997 76.2263C44.1962 76.2263 40.6308 75.4702 37.5052 73.9599C31.6212 71.1965 28.087 66.4899 26.9008 59.8332C26.7103 58.8285 26.6168 57.5582 26.6168 56.0234C26.6168 54.4853 27.0532 52.3806 27.9259 49.7109C28.8021 47.0414 30.4922 44.3561 32.9961 41.6534L33.8411 42.3139Z" fill="#E09E07"/>
<path d="M82.5311 102.652C80.8643 103.727 78.3763 103.98 76.3452 103.98C74.3123 103.98 72.5148 103.854 70.9495 103.604C69.384 103.354 67.7095 102.867 65.9277 102.144C64.1441 101.421 62.4713 100.589 60.906 99.6484C59.344 98.7064 57.7821 97.5454 56.2168 96.1654C53.3388 93.8381 50.7276 91.3232 48.383 88.6222C46.0365 85.9248 41.5153 80.8567 34.8207 73.4181C28.1298 65.9758 23.6865 61.0294 21.4943 58.5822C19.3054 56.135 17.6172 54.849 16.431 54.7238V53.7784C20.0604 53.7784 22.4847 53.7001 23.7037 53.5419C24.9228 53.3854 26.2199 53.1022 27.5964 52.6938C28.9714 52.287 30.1281 51.7379 31.0667 51.0461C34.7602 48.6598 36.6079 44.7041 36.6079 39.1788C36.6079 34.5956 35.5897 30.9233 33.5532 28.1597C31.5203 25.398 28.6597 23.9851 24.9713 23.9189H13.3348V80.0572C13.3348 81.6285 13.9115 83.012 15.0664 84.2076C16.2249 85.3999 17.65 85.9945 19.3401 85.9945H20.4621L20.5592 86.933H0.00823593V85.9945H1.2273C2.79269 85.9945 4.16759 85.4296 5.3555 84.2982C6.54686 83.1683 7.17196 81.7867 7.23257 80.1547V27.8746C7.17196 26.2445 6.56243 24.8489 5.40399 23.6896C4.2438 22.5267 2.85156 21.9446 1.2273 21.9446H0.00823593V20.999H25.3453C30.8484 20.999 35.2744 22.5546 38.6235 25.6639C41.9706 28.775 43.6451 32.8872 43.6451 38.0039C43.6451 43.1207 42.111 47.5178 39.0461 51.1922C35.9793 54.8628 32.2251 56.6981 27.7835 56.6981C27.7835 56.6981 27.7523 56.6981 27.6935 56.6981C29.8165 58.961 32.2251 61.5977 34.9178 64.6097C45.7404 76.6055 52.6842 84.1381 55.7458 87.211C58.8107 90.2874 61.5173 92.8162 63.8636 94.7958C66.2082 96.7736 68.2896 98.2337 70.1044 99.1756C73.7979 101.187 79.1585 102.451 81.0829 102.193C83.0072 101.935 83.8405 100.143 83.8405 99.5454V100.86L83.6024 101.816L83.1263 102.294L82.5311 102.652Z" fill="#003B73"/>
</g>
<path d="M8.12 120V108.192H11.81C12.614 108.192 13.328 108.3 13.952 108.516C14.576 108.72 15.062 109.068 15.41 109.56C15.77 110.04 15.95 110.688 15.95 111.504C15.95 112.296 15.77 112.95 15.41 113.466C15.062 113.982 14.576 114.372 13.952 114.636C13.328 114.888 12.614 115.014 11.81 115.014H9.614V120H8.12ZM9.614 113.79H11.594C12.518 113.79 13.226 113.604 13.718 113.232C14.21 112.848 14.456 112.272 14.456 111.504C14.456 110.736 14.21 110.196 13.718 109.884C13.226 109.56 12.518 109.398 11.594 109.398H9.614V113.79ZM14.6 120L11.522 114.6L12.692 113.808L16.292 120H14.6ZM23.804 120.216C22.82 120.216 21.944 119.964 21.176 119.46C20.42 118.956 19.826 118.242 19.394 117.318C18.974 116.394 18.764 115.302 18.764 114.042C18.764 112.782 18.974 111.702 19.394 110.802C19.826 109.89 20.42 109.194 21.176 108.714C21.944 108.222 22.82 107.976 23.804 107.976C24.8 107.976 25.676 108.222 26.432 108.714C27.188 109.194 27.782 109.89 28.214 110.802C28.646 111.702 28.862 112.782 28.862 114.042C28.862 115.302 28.646 116.394 28.214 117.318C27.782 118.242 27.188 118.956 26.432 119.46C25.676 119.964 24.8 120.216 23.804 120.216ZM23.804 118.884C24.512 118.884 25.124 118.686 25.64 118.29C26.168 117.894 26.576 117.336 26.864 116.616C27.152 115.884 27.296 115.026 27.296 114.042C27.296 113.07 27.152 112.23 26.864 111.522C26.576 110.814 26.168 110.268 25.64 109.884C25.124 109.488 24.512 109.29 23.804 109.29C23.108 109.29 22.496 109.488 21.968 109.884C21.44 110.268 21.032 110.814 20.744 111.522C20.456 112.23 20.312 113.07 20.312 114.042C20.312 115.026 20.456 115.884 20.744 116.616C21.032 117.336 21.44 117.894 21.968 118.29C22.496 118.686 23.108 118.884 23.804 118.884ZM32.4812 120V108.192H34.3712L36.6032 114.51C36.7472 114.906 36.8792 115.302 36.9992 115.698C37.1312 116.094 37.2632 116.514 37.3952 116.958H37.4672C37.5992 116.514 37.7252 116.094 37.8452 115.698C37.9652 115.302 38.0912 114.906 38.2232 114.51L40.4552 108.192H42.3272V120H40.9232V113.502C40.9232 113.154 40.9352 112.764 40.9592 112.332C40.9832 111.9 41.0072 111.474 41.0312 111.054C41.0672 110.622 41.1032 110.232 41.1392 109.884H41.0672L40.1492 112.728L37.9352 118.83H36.8372L34.6232 112.728L33.7052 109.884H33.6332C33.6692 110.232 33.6992 110.622 33.7232 111.054C33.7592 111.474 33.7892 111.9 33.8132 112.332C33.8372 112.764 33.8492 113.154 33.8492 113.502V120H32.4812ZM46.6393 120V108.192H53.4433V109.452H48.1333V113.16H52.6153V114.438H48.1333V118.722H53.6233V120H46.6393ZM61.8555 120.216C60.8115 120.216 59.8875 119.976 59.0835 119.496C58.2915 119.004 57.6675 118.302 57.2115 117.39C56.7555 116.478 56.5275 115.38 56.5275 114.096C56.5275 113.148 56.6595 112.296 56.9235 111.54C57.1995 110.784 57.5775 110.142 58.0575 109.614C58.5495 109.074 59.1255 108.666 59.7855 108.39C60.4455 108.114 61.1655 107.976 61.9455 107.976C62.7615 107.976 63.4455 108.126 63.9975 108.426C64.5615 108.726 65.0115 109.062 65.3475 109.434L64.5195 110.37C64.2315 110.058 63.8835 109.8 63.4755 109.596C63.0795 109.392 62.5815 109.29 61.9815 109.29C61.1895 109.29 60.4995 109.488 59.9115 109.884C59.3235 110.268 58.8675 110.814 58.5435 111.522C58.2315 112.23 58.0755 113.076 58.0755 114.06C58.0755 115.056 58.2255 115.914 58.5255 116.634C58.8375 117.354 59.2815 117.912 59.8575 118.308C60.4455 118.704 61.1595 118.902 61.9995 118.902C62.4195 118.902 62.8215 118.842 63.2055 118.722C63.5895 118.59 63.8955 118.416 64.1235 118.2V115.122H61.6215V113.88H65.4915V118.848C65.1195 119.244 64.6155 119.574 63.9795 119.838C63.3555 120.09 62.6475 120.216 61.8555 120.216ZM67.7645 120L71.7605 108.192H73.4525L77.4485 120H75.8645L73.7945 113.394C73.5785 112.734 73.3745 112.08 73.1825 111.432C72.9905 110.772 72.7985 110.1 72.6065 109.416H72.5345C72.3545 110.1 72.1685 110.772 71.9765 111.432C71.7845 112.08 71.5805 112.734 71.3645 113.394L69.2765 120H67.7645ZM69.8525 116.4V115.212H75.3065V116.4H69.8525Z" fill="#00488D"/>
<path opacity="0.8" d="M10.3983 131.12C9.93166 131.12 9.50499 131.033 9.11832 130.86C8.73166 130.68 8.39166 130.44 8.09832 130.14L8.56832 129.6C8.80166 129.847 9.07832 130.04 9.39832 130.18C9.72499 130.32 10.0617 130.39 10.4083 130.39C10.8417 130.39 11.1783 130.293 11.4183 130.1C11.6583 129.9 11.7783 129.64 11.7783 129.32C11.7783 129.093 11.7283 128.913 11.6283 128.78C11.535 128.647 11.405 128.533 11.2383 128.44C11.0783 128.347 10.895 128.253 10.6883 128.16L9.74832 127.75C9.53499 127.657 9.32499 127.54 9.11832 127.4C8.91832 127.26 8.75166 127.083 8.61832 126.87C8.48499 126.65 8.41832 126.38 8.41832 126.06C8.41832 125.727 8.50499 125.43 8.67832 125.17C8.85832 124.903 9.10166 124.697 9.40832 124.55C9.72166 124.397 10.0783 124.32 10.4783 124.32C10.8783 124.32 11.245 124.393 11.5783 124.54C11.9117 124.687 12.1917 124.877 12.4183 125.11L11.9683 125.65C11.7617 125.47 11.535 125.327 11.2883 125.22C11.0417 125.107 10.7717 125.05 10.4783 125.05C10.1117 125.05 9.81499 125.137 9.58832 125.31C9.36832 125.483 9.25832 125.717 9.25832 126.01C9.25832 126.217 9.31166 126.387 9.41832 126.52C9.52499 126.653 9.66166 126.763 9.82832 126.85C10.0017 126.937 10.175 127.02 10.3483 127.1L11.2783 127.5C11.5383 127.613 11.7683 127.743 11.9683 127.89C12.175 128.037 12.335 128.22 12.4483 128.44C12.5683 128.66 12.6283 128.93 12.6283 129.25C12.6283 129.597 12.5383 129.913 12.3583 130.2C12.185 130.48 11.9283 130.703 11.5883 130.87C11.255 131.037 10.8583 131.12 10.3983 131.12ZM18.7401 131.12C18.1935 131.12 17.7068 130.98 17.2801 130.7C16.8601 130.42 16.5301 130.023 16.2901 129.51C16.0568 128.997 15.9401 128.39 15.9401 127.69C15.9401 126.99 16.0568 126.39 16.2901 125.89C16.5301 125.383 16.8601 124.997 17.2801 124.73C17.7068 124.457 18.1935 124.32 18.7401 124.32C19.2935 124.32 19.7801 124.457 20.2001 124.73C20.6201 124.997 20.9501 125.383 21.1901 125.89C21.4301 126.39 21.5501 126.99 21.5501 127.69C21.5501 128.39 21.4301 128.997 21.1901 129.51C20.9501 130.023 20.6201 130.42 20.2001 130.7C19.7801 130.98 19.2935 131.12 18.7401 131.12ZM18.7401 130.38C19.1335 130.38 19.4735 130.27 19.7601 130.05C20.0535 129.83 20.2801 129.52 20.4401 129.12C20.6001 128.713 20.6801 128.237 20.6801 127.69C20.6801 127.15 20.6001 126.683 20.4401 126.29C20.2801 125.897 20.0535 125.593 19.7601 125.38C19.4735 125.16 19.1335 125.05 18.7401 125.05C18.3535 125.05 18.0135 125.16 17.7201 125.38C17.4268 125.593 17.2001 125.897 17.0401 126.29C16.8801 126.683 16.8001 127.15 16.8001 127.69C16.8001 128.237 16.8801 128.713 17.0401 129.12C17.2001 129.52 17.4268 129.83 17.7201 130.05C18.0135 130.27 18.3535 130.38 18.7401 130.38ZM25.3607 131V124.44H26.1907V130.29H29.0607V131H25.3607ZM34.6611 131.12C34.3211 131.12 34.0077 131.073 33.7211 130.98C33.4411 130.88 33.1944 130.723 32.9811 130.51C32.7677 130.29 32.6011 130 32.4811 129.64C32.3611 129.28 32.3011 128.843 32.3011 128.33V124.44H33.1311V128.35C33.1311 128.863 33.1977 129.27 33.3311 129.57C33.4711 129.863 33.6544 130.073 33.8811 130.2C34.1144 130.32 34.3744 130.38 34.6611 130.38C34.9477 130.38 35.2077 130.32 35.4411 130.2C35.6811 130.073 35.8711 129.863 36.0111 129.57C36.1511 129.27 36.2211 128.863 36.2211 128.35V124.44H37.0111V128.33C37.0111 128.843 36.9511 129.28 36.8311 129.64C36.7177 130 36.5544 130.29 36.3411 130.51C36.1277 130.723 35.8777 130.88 35.5911 130.98C35.3044 131.073 34.9944 131.12 34.6611 131.12ZM42.5364 131V125.15H40.5564V124.44H45.3564V125.15H43.3764V131H42.5364ZM48.9377 131V124.44H49.7677V131H48.9377ZM56.3847 131.12C55.838 131.12 55.3513 130.98 54.9247 130.7C54.5047 130.42 54.1747 130.023 53.9347 129.51C53.7013 128.997 53.5847 128.39 53.5847 127.69C53.5847 126.99 53.7013 126.39 53.9347 125.89C54.1747 125.383 54.5047 124.997 54.9247 124.73C55.3513 124.457 55.838 124.32 56.3847 124.32C56.938 124.32 57.4247 124.457 57.8447 124.73C58.2647 124.997 58.5947 125.383 58.8347 125.89C59.0747 126.39 59.1947 126.99 59.1947 127.69C59.1947 128.39 59.0747 128.997 58.8347 129.51C58.5947 130.023 58.2647 130.42 57.8447 130.7C57.4247 130.98 56.938 131.12 56.3847 131.12ZM56.3847 130.38C56.778 130.38 57.118 130.27 57.4047 130.05C57.698 129.83 57.9247 129.52 58.0847 129.12C58.2447 128.713 58.3247 128.237 58.3247 127.69C58.3247 127.15 58.2447 126.683 58.0847 126.29C57.9247 125.897 57.698 125.593 57.4047 125.38C57.118 125.16 56.778 125.05 56.3847 125.05C55.998 125.05 55.658 125.16 55.3647 125.38C55.0713 125.593 54.8447 125.897 54.6847 126.29C54.5247 126.683 54.4447 127.15 54.4447 127.69C54.4447 128.237 54.5247 128.713 54.6847 129.12C54.8447 129.52 55.0713 129.83 55.3647 130.05C55.658 130.27 55.998 130.38 56.3847 130.38ZM63.0053 131V124.44H63.9153L66.2453 128.52C66.3719 128.74 66.4919 128.97 66.6053 129.21C66.7186 129.443 66.8319 129.683 66.9453 129.93H66.9853C66.9653 129.59 66.9419 129.243 66.9153 128.89C66.8886 128.53 66.8753 128.183 66.8753 127.85V124.44H67.6753V131H66.7653L64.4353 126.92C64.3153 126.7 64.1919 126.47 64.0653 126.23C63.9453 125.99 63.8319 125.75 63.7253 125.51H63.6853C63.7119 125.837 63.7353 126.173 63.7553 126.52C63.7819 126.867 63.7953 127.217 63.7953 127.57V131H63.0053ZM73.6999 131.12C73.2332 131.12 72.8066 131.033 72.4199 130.86C72.0332 130.68 71.6932 130.44 71.3999 130.14L71.8699 129.6C72.1032 129.847 72.3799 130.04 72.6999 130.18C73.0266 130.32 73.3632 130.39 73.7099 130.39C74.1432 130.39 74.4799 130.293 74.7199 130.1C74.9599 129.9 75.0799 129.64 75.0799 129.32C75.0799 129.093 75.0299 128.913 74.9299 128.78C74.8366 128.647 74.7066 128.533 74.5399 128.44C74.3799 128.347 74.1966 128.253 73.9899 128.16L73.0499 127.75C72.8366 127.657 72.6266 127.54 72.4199 127.4C72.2199 127.26 72.0532 127.083 71.9199 126.87C71.7866 126.65 71.7199 126.38 71.7199 126.06C71.7199 125.727 71.8066 125.43 71.9799 125.17C72.1599 124.903 72.4032 124.697 72.7099 124.55C73.0232 124.397 73.3799 124.32 73.7799 124.32C74.1799 124.32 74.5466 124.393 74.8799 124.54C75.2132 124.687 75.4932 124.877 75.7199 125.11L75.2699 125.65C75.0632 125.47 74.8366 125.327 74.5899 125.22C74.3432 125.107 74.0732 125.05 73.7799 125.05C73.4132 125.05 73.1166 125.137 72.8899 125.31C72.6699 125.483 72.5599 125.717 72.5599 126.01C72.5599 126.217 72.6132 126.387 72.7199 126.52C72.8266 126.653 72.9632 126.763 73.1299 126.85C73.3032 126.937 73.4766 127.02 73.6499 127.1L74.5799 127.5C74.8399 127.613 75.0699 127.743 75.2699 127.89C75.4766 128.037 75.6366 128.22 75.7499 128.44C75.8699 128.66 75.9299 128.93 75.9299 129.25C75.9299 129.597 75.8399 129.913 75.6599 130.2C75.4866 130.48 75.2299 130.703 74.8899 130.87C74.5566 131.037 74.1599 131.12 73.6999 131.12Z" fill="#00488D"/>
<defs>
<clipPath id="clip0_1464_383">
<rect width="84" height="104" fill="white"/>
</clipPath>
</defs>
</svg>
